<?xml version="1.0" encoding="utf-8"?>
<!-- Generator: Adobe Illustrator 24.1.1, SVG Export Plug-In . SVG Version: 6.00 Build 0)  -->
<svg version="1.1" id="Layer_1" xmlns="http://www.w3.org/2000/svg" xmlns:xlink="http://www.w3.org/1999/xlink" x="0px" y="0px"
	 viewBox="0 0 512 512" style="enable-background:new 0 0 512 512;" xml:space="preserve">
<style type="text/css">
	.st0{fill:#FFD900;}
	.st1{fill:#F43249;}
	.st2{fill:#00EE76;}
	.st3{fill:#00D3FF;}
</style>
<g>
	<path class="st0" d="M369.9,334.9c60.8-33.4,106.8-58.8,110.8-60.8c12.7-6.8,25.8-24.6,0-38.5c-8.3-4.4-53.2-29-110.8-60.8
		l-79.8,80.6L369.9,334.9z"/>
	<path class="st1" d="M290.1,255.4L35.9,511.6c6,0.8,12.7-0.8,20.6-5.2c16.7-9.1,193.4-105.6,313.4-171.6L290.1,255.4z"/>
	<path class="st2" d="M290.1,255.4l79.8-80.2c0,0-295.5-161.3-313.4-170.8c-6.7-4-14.3-5.2-21-4L290.1,255.4z"/>
	<path class="st3" d="M290.1,255.4L35.5,0.4C25.2,2.8,16.4,12,16.4,30.6c0,29.8,0,426.2,0,450.8c0,17.1,6.8,29.4,19.5,30.6
		L290.1,255.4z"/>
</g>
</svg>
